# xmcd
#
# Track frame offsets:
#	150
#	20218
#	38218
#	50849
#	63057
#	74707
#	89615
#	107170
#	122901
#	142137
#	155374
#	166681
#	183681
#	202509
#	218165
#	229862
#	244163
#	262688
#	278527
#	291615
#	305050
#	316402
#	330050
#
# Disc length: 4617 seconds
#
# Revision: 0
# Processed by: cddbd v1.5.2PL0 Copyright (c) Steve Scherf et al.
# Submitted via: EasyCDDAExtractor 10.0.3.1
#
DISCID=59120717
DTITLE=Various Artist - The Best Country Album...Ever
DYEAR=1900
DGENRE=
TTITLE0=Lonestar - Amazed
TTITLE1=Lee Ann Womack - I Hope You Dance
TTITLE2=LeAnn Rimes - Blue
TTITLE3=Patsy Cline - Crazy
TTITLE4=Tammy Wynette - I Don't Wanna Play House
TTITLE5=Don Williams - I Recall A Gypsy Woman
TTITLE6=Jerry Jeff Walker - Mr. Bojangles
TTITLE7=Kenny Rogers - The Gambler
TTITLE8=Mac Davis - It's Hard To Be Humble
TTITLE9=Faron Young - It's Four In The Morning
TTITLE10=Crystal Gayle - Don't It Make My Brown Eyes Blue
TTITLE11=Ricky Nelson - Garden Party
TTITLE12=Jimmy Buffett - Margaritaville
TTITLE13=Billie Jo Spears - Sing Me An Old Fashioned Song
TTITLE14=Marvin Rainwater - Whole Lotta Woman
TTITLE15=Eddie Rabbitt - I Love A Rainy Night
TTITLE16=Joe South - Walk A Mile In My Shoes
TTITLE17=The Band - The Night They Drove Old Dixie Down
TTITLE18=Hank Williams - Hey Good Lookin'
TTITLE19=Tennessee Ernie Ford - Sixteen Tons
TTITLE20=Jimmy Dean - Big Bad John
TTITLE21=Kitty Wells - It Wasn't God Who Made Honky Tonk Angels
TTITLE22=Willie Nelson - Funny How Time Slips Away
EXTD=
EXTT0=
EXTT1=
EXTT2=
EXTT3=
EXTT4=
EXTT5=
EXTT6=
EXTT7=
EXTT8=
EXTT9=
EXTT10=
EXTT11=
EXTT12=
EXTT13=
EXTT14=
EXTT15=
EXTT16=
EXTT17=
EXTT18=
EXTT19=
EXTT20=
EXTT21=
EXTT22=
PLAYORDER=
